<?xml version="1.0" encoding="utf-8"?>
<!-- Generator: Adobe Illustrator 27.4.0, SVG Export Plug-In . SVG Version: 6.00 Build 0)  -->
<svg version="1.1" id="Layer_1" xmlns="http://www.w3.org/2000/svg" xmlns:xlink="http://www.w3.org/1999/xlink" x="0px" y="0px"
	 viewBox="0 0 202 64" style="enable-background:new 0 0 202 64;" xml:space="preserve">
<style type="text/css">
	.st0{fill:#EB2227;}
	.st1{fill:#FFFFFF;}
	.st2{fill:none;stroke:#FFFFFF;stroke-width:0.8804;}
</style>
<g>
	<g>
		<path id="SVGID_1_" class="st0" d="M144.8,4.4l15.9,22.3l8.4-11.7l-7.6-10.6L144.8,4.4L144.8,4.4z M184.3,4.4l-40.4,56.3h16.8
			l12.3-17.1l12.2,17.1h16.8l-20.6-28.8l19.7-27.5L184.3,4.4L184.3,4.4z"/>
	</g>
</g>
<path class="st1" d="M48.6,21.2c-0.6-2-1.7-3.7-3.5-5c-3.1-2.2-7.5-3.3-13.4-3.3c-11.5,0-19.5,4.2-23.9,12.6l13,3
	c1.9-3.4,4.4-5.1,7.5-5.1c3.1,0,4.6,1.2,4.3,3.7c-0.1,0.6-0.4,1.5-0.8,2.6c-7.4,0.7-12.3,1.3-14.9,1.8c-2.5,0.4-5.1,1.3-7.7,2.7
	c-2.6,1.4-4.6,3.2-6.2,5.5c-1.6,2.3-2.5,4.9-2.9,7.6c-0.5,3.7,0.4,6.8,2.5,9.3c2.1,2.5,5.1,3.7,9,3.7c5.8,0,10.6-2.8,14.6-8.5
	c-0.5,2.1-0.8,3.9-1,5.4c-0.1,0.5-0.2,2.3-0.2,3.1h16.1c-0.1-1.5,0-3.9,0.2-5c0,0,0,0,0,0c-0.4-1.5-0.6-3.1-0.4-4.9
	c0.2-1.4,0.8-4,1.8-7.7L48.6,21.2z M29.3,37.8c-1,4.7-2.4,7.9-4.1,9.4c-1.7,1.5-3.4,2.3-4.9,2.3c-2.4,0-3.5-1.3-3.2-3.8
	C17.7,41.1,21.8,38.4,29.3,37.8"/>
<path class="st1" d="M87.1,14.1H76.5l-6.2,22.4c-2.1,7.5-4.9,11.3-8.4,11.3c-1.9,0-2.7-1.1-2.4-3.4c0.1-0.5,0.4-2,1.1-4.4l7.1-25.9
	H52l-7.7,28.3c-1,3.5-1.5,5.9-1.7,7.3c-0.4,3.1,0.3,5.7,2,7.7c1.7,2.1,4.4,3,7.9,3c5.8,0,10.8-3.1,14.9-9.5l-2.8,9.5h14.8l9.2-32.8
	h-5L87.1,14.1z"/>
<path class="st1" d="M144.1,53.4c5.4-4.8,8.6-11.5,9.6-20.1c0.7-5.8-0.5-10.6-3.8-14.5c-3.2-3.9-8-5.9-14.3-5.9
	c-6.9,0-12.9,2.5-18,7.5c-5.1,5-8.2,11.4-9.1,19.2c-0.8,6.5,0.5,11.6,4,15.3c3.4,3.7,8.1,5.3,13.8,5.3
	C132.8,60.3,138.7,58.2,144.1,53.4 M124.2,42.6c0.4-3,1.4-6.9,3-11.7c1.7-4.8,3.9-7.1,6.7-7.1c3.1,0,4.4,2.4,3.8,7.2
	c-0.4,3.1-1.4,7-3,11.7c-1.6,4.7-3.8,7-6.7,7C125,49.6,123.7,47.3,124.2,42.6"/>
<path class="st1" d="M85.4,48.3c-0.3,2.8-0.1,5,0.7,6.7c0.8,1.7,2,3,3.5,3.9c1.5,0.9,3.9,1.4,7.3,1.4c2.7,0,5.5-0.3,8.6-1l3.2-11.8
	c-1.5,0.4-2.8,0.5-3.9,0.5c-2.6,0-3.7-1.1-3.4-3.3c0.1-0.4,0.3-1.4,0.7-3l4.4-16.1h4.9c1.1-1.9,2.5-3.7,4-5.4l1.7-6.2h-7.4l2.7-9.8
	H97.4l-2.9,9.5l-0.1,0.3h-5.7l-3.2,11.6h5.6l-4.4,16.1C86,45,85.5,47.1,85.4,48.3"/>
<path class="st2" d="M70.9,34.1"/>
</svg>
