<svg xmlns="http://www.w3.org/2000/svg" width="48.259" height="48.259" viewBox="0 0 48.259 48.259">
  <path id="admin_profile_icon" data-name="admin profile icon" d="M24.129.563A24.129,24.129,0,1,0,48.259,24.692,24.125,24.125,0,0,0,24.129.563Zm0,9.34a8.562,8.562,0,1,1-8.562,8.562A8.562,8.562,0,0,1,24.129,9.9Zm0,33.47A18.645,18.645,0,0,1,9.876,36.737a10.848,10.848,0,0,1,9.584-5.818,2.381,2.381,0,0,1,.691.107,12.882,12.882,0,0,0,3.979.671,12.833,12.833,0,0,0,3.979-.671,2.381,2.381,0,0,1,.691-.107,10.848,10.848,0,0,1,9.584,5.818A18.645,18.645,0,0,1,24.129,43.373Z" transform="translate(0 -0.563)" fill="#2b2a2a"/>
</svg>
