<svg xmlns="http://www.w3.org/2000/svg" width="24.562" height="21.049" viewBox="0 0 24.562 21.049">
  <path id="close_eye" data-name="close eye" d="M14.534,8.929a5.568,5.568,0,0,1,5.586,5.542,5.331,5.331,0,0,1-.4,2.028l3.261,3.234a13.1,13.1,0,0,0,3.832-5.262A13.228,13.228,0,0,0,10.077,6.934l2.412,2.4A5.523,5.523,0,0,1,14.534,8.929ZM3.368,5.909,5.917,8.436l.515.51A13.041,13.041,0,0,0,2.25,14.471a13.247,13.247,0,0,0,17.173,7.378l.471.466,3.272,3.234,1.42-1.409L4.782,4.5ZM9.54,12.031l1.732,1.716a3.14,3.14,0,0,0-.088.718,3.332,3.332,0,0,0,3.349,3.322,3.15,3.15,0,0,0,.724-.088l1.732,1.716A5.556,5.556,0,0,1,8.948,14.46,5.475,5.475,0,0,1,9.54,12.031Zm4.813-.861,3.519,3.492.022-.175a3.332,3.332,0,0,0-3.349-3.322Z" transform="translate(-2.25 -4.5)" opacity="0.5"/>
</svg>
