<svg xmlns="http://www.w3.org/2000/svg" width="129" height="129" viewBox="0 0 129 129">
  <g id="profile_icon" data-name="profile icon" transform="translate(-447.933 -368.933)">
    <circle id="Ellipse_24" data-name="Ellipse 24" cx="64.5" cy="64.5" r="64.5" transform="translate(447.933 368.933)" fill="#d9d9d9"/>
    <path id="Icon_awesome-user-alt" data-name="Icon awesome-user-alt" d="M34.124,38.39A19.195,19.195,0,1,0,14.929,19.195,19.2,19.2,0,0,0,34.124,38.39Zm17.062,4.266H43.842a23.2,23.2,0,0,1-19.435,0H17.062A17.061,17.061,0,0,0,0,59.718V61.85a6.4,6.4,0,0,0,6.4,6.4H61.85a6.4,6.4,0,0,0,6.4-6.4V59.718A17.061,17.061,0,0,0,51.187,42.655Z" transform="translate(478.308 399.308)" fill="#8e8e8e"/>
  </g>
</svg>
